<svg width="32" height="32" viewBox="0 0 32 32" fill="none" xmlns="http://www.w3.org/2000/svg">
<path fill-rule="evenodd" clip-rule="evenodd" d="M3.99992 9.33329H17.3333V21.3333H13.1056C12.5565 19.7797 11.0749 18.6666 9.33325 18.6666C7.59163 18.6666 6.10997 19.7797 5.56086 21.3333H2.66659V24H5.56086C6.10997 25.5536 7.59163 26.6666 9.33325 26.6666C11.0749 26.6666 12.5565 25.5536 13.1056 24H18.8942C19.4433 25.5536 20.925 26.6666 22.6666 26.6666C24.4082 26.6666 25.8899 25.5536 26.439 24H29.3333C30.0696 24 30.6666 23.403 30.6666 22.6666V16C30.6666 15.6463 30.5261 15.3072 30.2761 15.0572L26.2761 11.0572C26.026 10.8071 25.6869 10.6666 25.3333 10.6666H19.9999V7.99996C19.9999 7.26358 19.403 6.66663 18.6666 6.66663H3.99992V9.33329ZM19.9999 13.3333V19.6852C20.7076 19.0518 21.6421 18.6666 22.6666 18.6666C24.4082 18.6666 25.8899 19.7797 26.439 21.3333H27.9999V16.5522L24.781 13.3333H19.9999ZM22.6666 21.3333C23.403 21.3333 23.9999 21.9302 23.9999 22.6666C23.9999 23.403 23.403 24 22.6666 24C21.9302 24 21.3333 23.403 21.3333 22.6666C21.3333 21.9302 21.9302 21.3333 22.6666 21.3333ZM7.99992 22.6666C7.99992 21.9302 8.59687 21.3333 9.33325 21.3333C10.0696 21.3333 10.6666 21.9302 10.6666 22.6666C10.6666 23.403 10.0696 24 9.33325 24C8.59687 24 7.99992 23.403 7.99992 22.6666Z" fill="black"/>
<path fill-rule="evenodd" clip-rule="evenodd" d="M7.99992 13.3333H1.33325V10.6666H7.99992V13.3333Z" fill="black"/>
<path fill-rule="evenodd" clip-rule="evenodd" d="M6.66658 18.6666H1.33325V16H6.66658V18.6666Z" fill="black"/>
</svg>
