<svg xmlns="http://www.w3.org/2000/svg" width="24" height="25" viewBox="0 0 24 25" fill="none">
<path fill-rule="evenodd" clip-rule="evenodd" d="M13 3.56476L13 23.5648L11 23.5648L11 3.56476L13 3.56476Z" fill="#ffffff"/>
<path fill-rule="evenodd" clip-rule="evenodd" d="M11.293 4.68606L6.70718 9.27185L5.29297 7.85764L9.87875 3.27185C9.89159 3.25901 9.90442 3.24618 9.91723 3.23337C10.217 2.93345 10.5084 2.64198 10.7811 2.43394C11.0885 2.1994 11.4864 1.97896 12.0001 1.97896C12.5137 1.97896 12.9117 2.1994 13.2191 2.43394C13.4918 2.64198 13.7831 2.93345 14.0829 3.23337C14.0957 3.24618 14.1086 3.25901 14.1214 3.27185L18.7072 7.85764L17.293 9.27185L12.7072 4.68606C12.3539 4.33274 12.1585 4.14038 12.0059 4.02398C12.0039 4.02246 12.002 4.02098 12.0001 4.01954C11.9982 4.02098 11.9962 4.02246 11.9942 4.02398C11.8417 4.14038 11.6463 4.33274 11.293 4.68606Z" fill="#ffffff"/>
</svg>