<svg width="32" height="32" viewBox="0 0 32 32" fill="none" xmlns="http://www.w3.org/2000/svg">
<path fill-rule="evenodd" clip-rule="evenodd" d="M15.4542 4.53627C15.1232 4.6807 14.7126 4.90719 14.0576 5.27108L7.39086 8.9748C6.69899 9.35917 6.26578 9.6016 5.95257 9.81896C5.66381 10.0194 5.56977 10.1375 5.51759 10.2262C5.46541 10.3149 5.4078 10.4544 5.37286 10.8042C5.33495 11.1835 5.33342 11.68 5.33342 12.4714V19.5284C5.33342 20.3199 5.33495 20.8163 5.37286 21.1957C5.4078 21.5454 5.46541 21.685 5.51759 21.7737C5.56977 21.8624 5.66381 21.9805 5.95257 22.1809C6.26578 22.3983 6.69899 22.6407 7.39086 23.0251L14.0576 26.7288C14.7126 27.0927 15.1232 27.3192 15.4542 27.4636C15.759 27.5967 15.9019 27.616 16.0002 27.616C16.0986 27.616 16.2414 27.5967 16.5463 27.4636C16.8772 27.3192 17.2878 27.0927 17.9428 26.7288L24.6093 23.0251C25.3012 22.6407 25.7344 22.3983 26.0476 22.1809C26.3364 21.9805 26.4304 21.8624 26.4826 21.7737C26.5348 21.685 26.5924 21.5454 26.6273 21.1957C26.6652 20.8164 26.6668 20.3199 26.6668 19.5285V12.4714C26.6668 11.6799 26.6652 11.1835 26.6273 10.8042C26.5924 10.4544 26.5348 10.3149 26.4826 10.2262C26.4304 10.1375 26.3364 10.0193 26.0476 9.81895C25.7344 9.60158 25.3012 9.35916 24.6093 8.97478L17.9428 5.2711C17.2878 4.90721 16.8772 4.68071 16.5463 4.53628C16.2414 4.40323 16.0986 4.38383 16.0002 4.38383C15.9019 4.38383 15.759 4.40322 15.4542 4.53627ZM14.3875 2.09224C14.8884 1.8736 15.4076 1.71716 16.0002 1.71716C16.5929 1.71717 17.112 1.87361 17.613 2.09225C18.075 2.2939 18.5977 2.58432 19.1884 2.91254L25.9563 6.67255C26.5808 7.01944 27.1323 7.32581 27.568 7.62817C28.0402 7.95587 28.4647 8.33651 28.7809 8.87384C29.0971 9.41116 29.2236 9.96715 29.2808 10.539C29.3335 11.0668 29.3335 11.6977 29.3334 12.412V19.5878C29.3335 20.3022 29.3335 20.9331 29.2808 21.4608C29.2236 22.0327 29.0971 22.5887 28.7809 23.126C28.4647 23.6634 28.0402 24.044 27.568 24.3717C27.1323 24.6741 26.5807 24.9805 25.9562 25.3274L19.1884 29.0873C18.5977 29.4156 18.075 29.706 17.613 29.9076C17.112 30.1263 16.5929 30.2827 16.0002 30.2827C15.4076 30.2827 14.8884 30.1263 14.3875 29.9076C13.9255 29.706 13.4028 29.4156 12.812 29.0874L6.04392 25.3273C5.41943 24.9804 4.86788 24.6741 4.43219 24.3717C3.96 24.044 3.53544 23.6634 3.21927 23.126C2.90311 22.5887 2.77654 22.0327 2.7194 21.4608C2.66668 20.9331 2.66671 20.3022 2.66675 19.5878V12.4121C2.66671 11.6977 2.66668 11.0668 2.7194 10.5391C2.77654 9.96716 2.90311 9.41117 3.21927 8.87384C3.53544 8.33651 3.96 7.95586 4.43219 7.62817C4.86789 7.3258 5.41944 7.01943 6.04393 6.67254C6.06117 6.66296 6.07847 6.65335 6.09583 6.64371L12.812 2.91252C13.4028 2.5843 13.9255 2.29388 14.3875 2.09224ZM14.6668 17.3333V9.99994H17.3334V17.3333H14.6668ZM14.6668 21.9999V19.3333H17.3334V21.9999H14.6668Z" fill="black"/>
</svg>
