<svg width="32" height="32" viewBox="0 0 32 32" fill="none" xmlns="http://www.w3.org/2000/svg">
<path fill-rule="evenodd" clip-rule="evenodd" d="M15.9998 13.3334C14.5271 13.3334 13.3332 14.5273 13.3332 16.0001C13.3332 17.4728 14.5271 18.6667 15.9998 18.6667C17.4726 18.6667 18.6665 17.4728 18.6665 16.0001C18.6665 14.5273 17.4726 13.3334 15.9998 13.3334ZM10.6665 16.0001C10.6665 13.0546 13.0543 10.6667 15.9998 10.6667C18.9454 10.6667 21.3332 13.0546 21.3332 16.0001C21.3332 18.9456 18.9454 21.3334 15.9998 21.3334C13.0543 21.3334 10.6665 18.9456 10.6665 16.0001Z" fill="black"/>
<path fill-rule="evenodd" clip-rule="evenodd" d="M10.7019 5.44767C10.4682 3.2494 12.1913 1.33337 14.4019 1.33337H17.598C19.8087 1.33337 21.5319 3.24943 21.2981 5.44774C21.2033 6.33939 22.1942 6.93484 22.937 6.43261L23.2063 6.25057C25.0332 5.01541 27.5212 5.55319 28.6749 7.4326L30.1241 9.79333C31.296 11.7025 30.4954 14.2071 28.4333 15.0823C27.6235 15.426 27.6234 16.5739 28.4334 16.9177C30.4955 17.793 31.2963 20.2976 30.1243 22.2069L28.6753 24.5674C27.5215 26.4469 25.0334 26.9847 23.2065 25.7495L22.9371 25.5674C22.1942 25.0651 21.2033 25.6606 21.2981 26.5523C21.5319 28.7506 19.8087 30.6667 17.598 30.6667H14.402C12.1913 30.6667 10.4682 28.7506 10.7019 26.5523C10.7967 25.6607 9.80586 25.0653 9.06304 25.5675L8.79377 25.7495C6.96689 26.9847 4.47882 26.4469 3.32513 24.5675L1.87602 22.2069C0.70401 20.2976 1.50485 17.793 3.56695 16.9177C4.37697 16.5739 4.3768 15.426 3.56707 15.0823C1.50497 14.2071 0.704282 11.7025 1.87624 9.79333L3.32546 7.4325C4.47912 5.55315 6.96711 5.01538 8.79395 6.2505L9.06312 6.43248C9.8059 6.93468 10.7967 6.33927 10.7019 5.44767ZM14.4019 4.00004C13.7756 4.00004 13.2874 4.5429 13.3536 5.16573C13.6882 8.31263 10.1912 10.4141 7.56952 8.64162L7.30036 8.45964C6.73169 8.07516 5.95721 8.24256 5.59809 8.82758L4.14887 11.1884C3.82997 11.7079 4.04784 12.3894 4.60897 12.6276C7.58534 13.891 7.58493 18.1092 4.60885 19.3724C4.04763 19.6106 3.82975 20.2923 4.14865 20.8118L5.59776 23.1724C5.95691 23.7575 6.73146 23.9249 7.30018 23.5404L7.56944 23.3583C10.1911 21.5858 13.6882 23.6873 13.3536 26.8343C13.2874 27.4571 13.7756 28 14.402 28H17.598C18.2244 28 18.7126 27.4571 18.6464 26.8342C18.3118 23.6872 21.8089 21.5857 24.4307 23.3582L24.7 23.5403C25.2688 23.9249 26.0434 23.7574 26.4026 23.1723L27.8517 20.8118C28.1706 20.2923 27.9527 19.6106 27.3915 19.3724C24.4154 18.1092 24.415 13.891 27.3913 12.6276C27.9525 12.3894 28.1704 11.7079 27.8515 11.1884L26.4023 8.82768C26.0431 8.24261 25.2686 8.07519 24.6999 8.4597L24.4306 8.64175C21.8089 10.4143 18.3118 8.31275 18.6464 5.1658C18.7126 4.54293 18.2244 4.00004 17.598 4.00004H14.4019Z" fill="black"/>
</svg>
