<svg width="32" height="32" viewBox="0 0 32 32" fill="none" xmlns="http://www.w3.org/2000/svg">
<path fill-rule="evenodd" clip-rule="evenodd" d="M1.8635 14.4029C1.97753 15.7714 2.78525 16.984 4.00006 17.6174V21C4.00006 22.1046 4.89549 23 6.00006 23H8.00006C9.10463 23 10.0001 22.1046 10.0001 21V20H14.0001V21C14.0001 22.1046 14.8955 23 16.0001 23H18.0001C19.1046 23 20.0001 22.1046 20.0001 21V17.6174C21.2149 16.9839 22.0226 15.7713 22.1366 14.4029L22.8811 5.46964C22.9788 4.2971 22.5553 3.14101 21.7233 2.30903L21.5858 2.17157C20.8357 1.42143 19.8183 1 18.7574 1H5.24269C4.18183 1 3.16441 1.42143 2.41427 2.17157L2.27681 2.30903C1.44483 3.14101 1.02135 4.2971 1.11906 5.46964L1.8635 14.4029ZM5.24269 3C4.71226 3 4.20355 3.21071 3.82848 3.58579L3.69103 3.72324C3.27504 4.13923 3.06329 4.71728 3.11215 5.30354L3.85659 14.2368C3.87387 14.4442 3.92303 14.6445 4.00006 14.8317V11C4.00006 10.9341 4.00657 10.8685 4.01948 10.8039L4.8587 6.60777C5.04567 5.67292 5.8665 5 6.81986 5H17.1803C18.1336 5 18.9544 5.67292 19.1414 6.60777L19.9806 10.8039C19.9936 10.8685 20.0001 10.9341 20.0001 11V14.8316C20.0771 14.6444 20.1262 14.4442 20.1435 14.2368L20.888 5.30354C20.9368 4.71728 20.7251 4.13923 20.3091 3.72324L20.1716 3.58579C19.7966 3.21071 19.2878 3 18.7574 3H5.24269ZM6.00006 15V12.339C7.68392 12.7774 9.41861 13 11.1623 13H12.8378C14.5815 13 16.3162 12.7774 18.0001 12.339V15H16.0001V17H18.0001V18H6.00006V17H8.00005V15H6.00006ZM17.8422 10.3098C16.2149 10.7674 14.531 11 12.8378 11H11.1623C9.46909 11 7.78527 10.7674 6.15791 10.3098L6.81986 7L17.1803 7L17.8422 10.3098ZM6.00006 21V20H8.00006V21H6.00006ZM16.0001 21V20H18.0001V21H16.0001Z" fill="black"/>
</svg>
