<svg width="24" height="25" viewBox="0 0 24 25" fill="none" xmlns="http://www.w3.org/2000/svg">
<path fill-rule="evenodd" clip-rule="evenodd" d="M1 14.6379L1 10.4916C0.999973 8.66814 0.999951 7.19838 1.15537 6.04242C1.31672 4.84228 1.66191 3.83178 2.46447 3.02922C3.26702 2.22667 4.27752 1.88148 5.47767 1.72012C6.63363 1.56471 8.1034 1.56473 9.92686 1.56476L14.0731 1.56476C15.8966 1.56473 17.3664 1.56471 18.5223 1.72012C19.7225 1.88148 20.733 2.22667 21.5355 3.02922C22.3381 3.83178 22.6833 4.84228 22.8446 6.04242C23.0001 7.19838 23 8.66815 23 10.4916L23 14.6379C23 16.4614 23.0001 17.9311 22.8446 19.0871C22.6833 20.2872 22.3381 21.2977 21.5355 22.1003C20.733 22.9028 19.7225 23.248 18.5223 23.4094C17.3664 23.5648 15.8966 23.5648 14.0732 23.5648L9.92684 23.5648C8.10338 23.5648 6.63362 23.5648 5.47767 23.4094C4.27752 23.248 3.26702 22.9028 2.46447 22.1003C1.66191 21.2977 1.31672 20.2872 1.15537 19.0871C0.999951 17.9311 0.999973 16.4614 1 14.6379ZM3.13753 18.8206C3.26907 19.799 3.50966 20.3171 3.87868 20.6861C4.2477 21.0551 4.76579 21.2957 5.74416 21.4272C6.7513 21.5626 8.08611 21.5648 10 21.5648L14 21.5648C15.9139 21.5648 17.2487 21.5626 18.2558 21.4272C19.2342 21.2957 19.7523 21.0551 20.1213 20.6861C20.4903 20.3171 20.7309 19.799 20.8625 18.8206C20.9979 17.8135 21 16.4786 21 14.5648L21 10.5648C21 8.65087 20.9979 7.31605 20.8625 6.30892C20.7309 5.33055 20.4903 4.81245 20.1213 4.44344C19.7523 4.07442 19.2342 3.83382 18.2558 3.70229C17.2487 3.56688 15.9139 3.56476 14 3.56476L10 3.56476C8.08611 3.56476 6.7513 3.56688 5.74416 3.70229C4.76579 3.83382 4.2477 4.07442 3.87868 4.44344C3.50966 4.81245 3.26907 5.33055 3.13753 6.30892C3.00213 7.31605 3 8.65087 3 10.5648L3 14.5648C3 16.4786 3.00213 17.8135 3.13753 18.8206Z" fill="black"/>
<path fill-rule="evenodd" clip-rule="evenodd" d="M13 7.56476L13 18.5648L11 18.5648L11 7.56476L13 7.56476Z" fill="black"/>
<path fill-rule="evenodd" clip-rule="evenodd" d="M11.293 9.68608L8.70718 12.2719L7.29297 10.8577L9.87876 8.27186C9.8916 8.25903 9.90442 8.2462 9.91723 8.23338C10.217 7.93346 10.5084 7.64199 10.7811 7.43395C11.0885 7.19942 11.4864 6.97897 12.0001 6.97897C12.5137 6.97897 12.9117 7.19942 13.2191 7.43395C13.4918 7.64199 13.7831 7.93346 14.0829 8.23338C14.0957 8.2462 14.1086 8.25903 14.1214 8.27187L16.7072 10.8577L15.293 12.2719L12.7072 9.68608C12.3539 9.33276 12.1585 9.1404 12.0059 9.02399C12.0039 9.02248 12.002 9.021 12.0001 9.01955C11.9982 9.021 11.9962 9.02248 11.9942 9.02399C11.8417 9.1404 11.6463 9.33276 11.293 9.68608Z" fill="black"/>
</svg>
